<?xml version="1.0" encoding="UTF-8"?>
<svg id="logo" xmlns="http://www.w3.org/2000/svg" viewBox="0 0 483.98 369.2">
  <g id="earth">
    <ellipse id="_x30_" cx="186.23" cy="182.97" rx="186.23" ry="182.97" style="fill: #62e8e4;"/>
    <path id="_x31_" d="M371.43,207.4c-10.68,91.08-89.42,161.79-185,161.79-51.24,0-97.63-20.33-131.31-53.22C25.09,286.64,5.19,247.29,1.03,203.44c8.29-52.22,53.52-92.14,108.07-92.14,33.47,0,63.43,15.03,83.5,38.7,2.69,4.32,5.74,8.47,9.14,12.45,25.93,30.44,71.41,50.63,123.18,50.63,16.27,0,31.92-2,46.52-5.68Z" style="fill: #fff;"/>
    <path id="_x32_" d="M364.88,237.81c-.03.15-.08.3-.14.45-.25.9-.51,1.8-.8,2.69-.1.38-.22.75-.34,1.12-.24.79-.49,1.58-.75,2.37-.16.49-.32.98-.5,1.47-.24.71-.48,1.43-.73,2.13-.56,1.61-1.15,3.2-1.77,4.78-.3.78-.6,1.55-.9,2.32-.06.13-.11.27-.17.39-.41,1.02-.83,2.03-1.26,3.03-.48,1.12-.97,2.23-1.47,3.34-.5,1.13-1.02,2.24-1.56,3.36-1.57,3.27-3.24,6.49-5,9.65-.35.62-.7,1.26-1.07,1.89-.33.6-.68,1.21-1.05,1.81-.58.99-1.17,1.97-1.78,2.96-.42.7-.85,1.39-1.31,2.08-.17.3-.36.6-.56.89-.5.78-1,1.55-1.52,2.32-.16.26-.33.5-.51.76-.41.62-.83,1.25-1.26,1.86-.35.52-.72,1.04-1.09,1.55-.34.5-.69.99-1.06,1.48-.31.44-.62.87-.94,1.31-.52.7-1.05,1.41-1.58,2.1-.14.2-.28.4-.45.59-.55.74-1.12,1.47-1.7,2.2-.19.26-.39.51-.6.76-.58.74-1.17,1.46-1.76,2.18-.2.26-.42.51-.64.77-.51.61-1.03,1.24-1.56,1.84-.35.42-.72.84-1.08,1.25-.5.58-1.01,1.16-1.53,1.73-.14.16-.27.32-.43.48-.69.78-1.41,1.56-2.14,2.33-.82.88-1.65,1.75-2.48,2.61-5.25,5.4-10.84,10.49-16.74,15.23-.76.61-1.53,1.22-2.31,1.82-.75.58-1.5,1.16-2.27,1.74-.24.18-.48.37-.73.55-.94.7-1.91,1.41-2.87,2.1-.89.64-1.78,1.26-2.68,1.89-1.11.77-2.24,1.53-3.37,2.28-1.02.67-2.06,1.33-3.09,1.99t-.02.02c-1.02.64-2.06,1.28-3.1,1.9-.07.04-.14.09-.22.13-.99.59-1.98,1.18-2.98,1.75-.12.08-.26.16-.39.22-.94.54-1.89,1.07-2.84,1.6-1.11.61-2.23,1.22-3.35,1.8-.81.42-1.61.84-2.42,1.25-1.36.69-2.75,1.36-4.14,2.02-.98.47-1.95.93-2.94,1.37-.3.13-.59.27-.89.4-.91.4-1.82.8-2.73,1.19-.08.03-.16.07-.24.1-.99.42-1.99.84-2.99,1.25-.3.11-.59.23-.89.36-1.02.4-2.05.8-3.07,1.19-1.09.41-2.18.83-3.28,1.22-.99.36-1.98.7-2.98,1.04-.45.17-.92.32-1.39.47-.07.03-.15.06-.23.08-.93.31-1.86.61-2.81.9-1.2.38-2.41.75-3.62,1.09-1.22.36-2.43.7-3.66,1.03-1.05.29-2.09.56-3.15.83-.27.07-.56.13-.84.21-1.02.25-2.05.49-3.08.73-.14.03-.28.07-.42.1-.97.22-1.95.44-2.93.64-.2.04-.4.09-.6.12-.41.09-.83.18-1.24.25-1,.21-2,.4-3,.58-2.41.45-4.85.85-7.3,1.19-.85.12-1.7.25-2.56.35-.52.07-1.05.13-1.57.2-1.2.15-2.41.28-3.61.4-1.3.13-2.59.26-3.9.36-1.31.11-2.61.2-3.93.28-1.31.09-2.62.16-3.94.2-1.33.06-2.65.1-3.98.12-1.33.03-2.66.04-3.99.04-.93,0-1.85-.01-2.77-.02-1-.01-1.99-.03-2.98-.07-.94-.02-1.9-.06-2.85-.1-.73-.03-1.47-.07-2.19-.11-.42-.02-.84-.04-1.25-.08-.75-.03-1.49-.09-2.23-.14-.73-.06-1.45-.11-2.17-.17-2.26-.19-4.5-.42-6.72-.69-.69-.09-1.4-.17-2.09-.26-1.01-.13-2.01-.28-3.01-.42-1.59-.23-3.19-.49-4.77-.77l-1.33-.23c-.7-.13-1.42-.26-2.12-.4-5.95-1.14-11.81-2.57-17.53-4.25-.68-.2-1.36-.4-2.05-.61-1.35-.41-2.7-.84-4.06-1.29-2.24-.74-4.45-1.52-6.66-2.34-.44-.17-.9-.33-1.34-.5-.13-.05-.26-.11-.39-.16-1.4-.53-2.79-1.08-4.16-1.65-.75-.31-1.5-.62-2.26-.95-.68-.29-1.36-.59-2.06-.89-.09-.03-.18-.08-.28-.12-.7-.31-1.41-.64-2.11-.96-.72-.32-1.43-.66-2.15-.99-.05-.02-.09-.04-.15-.07-.65-.31-1.3-.62-1.93-.94-12.43-6.07-24.07-13.46-34.69-21.97-.48-.39-.95-.78-1.43-1.16-.76-.62-1.51-1.25-2.26-1.89-.6-.51-1.2-1.03-1.81-1.55-1.2-1.04-2.4-2.1-3.57-3.17-.59-.54-1.17-1.07-1.75-1.62s-1.16-1.09-1.73-1.64c-.57-.55-1.14-1.1-1.7-1.66s-1.12-1.12-1.68-1.68c-.56-.56-1.11-1.13-1.66-1.71-.5-.51-1-1.04-1.49-1.56-.59-.64-1.18-1.26-1.76-1.91-.53-.58-1.07-1.17-1.59-1.76-3.03-3.4-5.92-6.92-8.67-10.53-.44-.58-.89-1.16-1.32-1.75-.35-.47-.7-.95-1.06-1.43-.53-.74-1.06-1.47-1.58-2.22-.4-.56-.8-1.13-1.18-1.7-.43-.62-.86-1.25-1.28-1.89-.39-.58-.77-1.17-1.16-1.76-.41-.61-.8-1.23-1.18-1.84-.4-.61-.78-1.24-1.16-1.85-2.69-4.35-5.19-8.83-7.49-13.41-1.32-2.62-2.57-5.28-3.76-7.97-.3-.67-.59-1.34-.87-2.02-.87-2.05-1.72-4.13-2.51-6.21-.77-2.04-1.51-4.09-2.22-6.17,1.99-52.7,40.85-94.74,88.52-94.74,30.79,0,57.92,17.56,73.78,44.21,1.91,5.01,4.3,9.83,7.14,14.44,19.76,32.17,60.99,53.87,108.21,53,29.02-.54,55.45-9.52,75.8-24,.49-.33.98-.69,1.47-1.05Z" style="fill: #fbb03b;"/>
    <path id="_x33_" d="M364.8,238.61c-.03.14-.08.3-.14.44-.25.9-.51,1.79-.8,2.67-.1.38-.22.74-.34,1.11-.24.79-.49,1.57-.75,2.35-.16.49-.32.98-.5,1.46-.24.71-.48,1.42-.73,2.12-.56,1.6-1.15,3.18-1.77,4.75-.3.78-.6,1.54-.9,2.31-.06.13-.11.27-.17.39-.41,1.01-.83,2.02-1.26,3.02-.48,1.11-.97,2.22-1.47,3.32-.5,1.12-1.02,2.23-1.56,3.34-1.57,3.25-3.23,6.45-5,9.59-.35.62-.7,1.25-1.07,1.87-.33.6-.68,1.2-1.05,1.8-.58.99-1.17,1.96-1.78,2.94-.42.7-.85,1.39-1.31,2.06-.17.3-.36.6-.56.89-.5.78-1,1.54-1.52,2.31-.16.26-.33.5-.51.75-.41.62-.83,1.24-1.26,1.85-.35.52-.72,1.03-1.09,1.54-.34.5-.69.99-1.06,1.47-.31.43-.63.86-.94,1.3-.52.7-1.05,1.4-1.58,2.08-.14.2-.28.4-.45.59-.55.73-1.13,1.46-1.71,2.18-.19.26-.39.51-.6.75-.58.73-1.17,1.45-1.76,2.16-.2.26-.42.51-.64.77-.51.61-1.03,1.23-1.56,1.83-.35.42-.72.83-1.08,1.24-.5.58-1.01,1.15-1.53,1.72-.14.16-.27.32-.43.48-.69.78-1.41,1.55-2.14,2.32-.82.88-1.65,1.74-2.48,2.6-5.25,5.37-10.84,10.42-16.74,15.14-.76.61-1.53,1.21-2.31,1.81-.75.58-1.5,1.15-2.27,1.73-.24.18-.48.37-.73.54-.94.7-1.91,1.4-2.88,2.08-.89.63-1.78,1.25-2.68,1.87-1.11.77-2.24,1.52-3.38,2.26-1.02.67-2.06,1.32-3.09,1.97t-.02.02c-1.02.63-2.06,1.28-3.1,1.89-.07.04-.14.09-.22.13-.99.59-1.98,1.18-2.98,1.74-.13.08-.26.16-.39.22-.94.53-1.89,1.06-2.84,1.59-1.11.61-2.23,1.21-3.35,1.79-.81.42-1.61.83-2.42,1.24-1.36.69-2.75,1.35-4.14,2.01-.98.47-1.96.92-2.94,1.36-.3.13-.59.27-.89.4-.91.4-1.82.8-2.73,1.19-.08.03-.16.07-.24.1-.99.42-1.99.83-2.99,1.24-.3.11-.59.23-.89.35-1.02.4-2.05.8-3.07,1.19-1.09.41-2.18.82-3.29,1.21-.99.35-1.98.7-2.98,1.03-.45.17-.92.32-1.39.47-.07.03-.15.06-.23.08-.93.31-1.86.61-2.81.9-1.2.38-2.41.74-3.63,1.09-1.22.35-2.43.7-3.66,1.02-1.05.29-2.09.55-3.15.82-.27.07-.56.13-.84.21-1.02.24-2.05.49-3.08.72-.14.03-.28.07-.42.1-.97.22-1.96.43-2.93.63-.2.04-.4.09-.6.12-.41.09-.83.18-1.24.24-1,.21-2,.4-3,.58-2.41.44-4.84.84-7.3,1.19-.85.12-1.71.24-2.56.34-.52.07-1.05.13-1.57.2-1.2.14-2.41.28-3.61.4-1.3.13-2.59.26-3.9.35-1.31.11-2.61.2-3.93.28-1.31.09-2.63.16-3.94.2-1.33.06-2.65.1-3.98.12-1.33.03-2.66.04-3.99.04-.93,0-1.85-.01-2.77-.02-1-.01-1.99-.03-2.98-.07-.94-.02-1.9-.06-2.85-.1-.73-.03-1.47-.07-2.19-.11-.42-.02-.84-.04-1.25-.08-.75-.03-1.49-.09-2.23-.14-.73-.06-1.46-.11-2.17-.17-2.26-.19-4.5-.42-6.72-.69-.69-.09-1.4-.17-2.09-.26-1.01-.13-2.01-.28-3.01-.42-1.6-.23-3.18-.49-4.77-.77l-1.33-.23c-.72-.12-1.42-.26-2.13-.4-5.96-1.13-11.81-2.55-17.54-4.23-.68-.2-1.36-.4-2.05-.61-1.36-.41-2.72-.84-4.06-1.29-2.24-.73-4.46-1.51-6.66-2.33-.44-.17-.9-.33-1.34-.5-1.53-.58-3.05-1.18-4.56-1.8-.75-.31-1.5-.62-2.26-.94-.68-.29-1.36-.59-2.06-.89-.09-.03-.18-.08-.28-.12-.7-.31-1.41-.63-2.11-.95-.72-.32-1.43-.65-2.15-.99-.05-.02-.09-.04-.15-.07-.65-.31-1.3-.62-1.93-.93-12.44-6.03-24.08-13.37-34.71-21.84-.48-.39-.95-.78-1.43-1.15-.76-.62-1.51-1.24-2.26-1.87-.6-.51-1.2-1.02-1.81-1.54-1.2-1.03-2.4-2.08-3.57-3.15-.59-.53-1.17-1.06-1.75-1.61s-1.16-1.09-1.73-1.63c-.57-.54-1.14-1.1-1.71-1.65s-1.13-1.11-1.68-1.67c-.56-.55-1.11-1.12-1.66-1.7-.5-.51-1-1.03-1.49-1.55-.59-.63-1.18-1.25-1.76-1.9-.53-.58-1.07-1.16-1.59-1.75-3.04-3.38-5.92-6.88-8.67-10.47-.44-.58-.89-1.15-1.32-1.74-.35-.47-.7-.94-1.06-1.42-.53-.73-1.06-1.46-1.58-2.21-.4-.55-.8-1.12-1.18-1.69-.43-.62-.86-1.24-1.28-1.87-.39-.58-.77-1.16-1.16-1.75-.41-.61-.8-1.22-1.18-1.83-.4-.61-.78-1.23-1.16-1.84-2.69-4.33-5.2-8.77-7.49-13.33-1.33-2.61-2.58-5.25-3.76-7.92-.3-.67-.59-1.33-.88-2.01-.89-2.04-1.72-4.09-2.51-6.17h0c10.27-32.59,35.38-55.62,64.75-55.62,23.76,0,44.74,15.07,57.32,38.08,1.71,4.68,3.74,9.22,6.09,13.58,19.5,36.42,60.02,61.81,107.29,62.65,52.8.91,98.32-29.12,115.93-71.89.49-.33.98-.69,1.47-1.04Z" style="fill: #01b9b7;"/>
  </g>
  <path id="airplane" d="M469.27,147.36c-.18.07-.35.14-.53.21-.35.14-.7.29-1.06.45-.18.08-.35.16-.53.24-.18.08-.35.17-.53.26-.18.09-.35.18-.53.27-.18.09-.35.18-.53.28-.18.09-.36.19-.53.29h0c-.18.1-.36.2-.53.3-.18.1-.36.2-.53.31h0c-.18.1-.36.21-.54.32-.18.11-.36.22-.54.33-.18.11-.36.22-.54.34h0c-.18.11-.36.23-.54.35-.18.12-.36.23-.54.35-.18.12-.36.24-.54.36h0c-.36.24-.72.49-1.09.75-.18.13-.36.26-.54.38-.18.13-.36.26-.55.39h0c-.36.26-.73.53-1.1.8-.18.14-.37.27-.55.41h0c-.18.14-.37.28-.55.42h0c-.18.14-.37.28-.55.42-.18.14-.37.28-.56.43h0c-.37.29-.74.57-1.12.87-.19.15-.37.29-.56.44-.19.15-.37.29-.56.44-.38.3-.75.59-1.13.89h0c-.19.15-.38.3-.57.45h0c-.19.15-.38.3-.57.45h0c-.19.15-.38.3-.57.46h0s-.57.46-.57.46h0c-.19.15-.38.31-.58.46h0c-.19.15-.39.31-.58.46h0c-.19.15-.39.31-.58.46h0s0,0,0,0h0s0,0,0,0h0s0,0,0,0h0s0,0,0,0h0s0,0,0,0h0s0,0,0,0h0s-.02.01-.03.02l-1.28,1.1-58.76-20.08c-.31-.11-.62-.05-.88.15l-5.65,4.48c-.23.19-.36.44-.35.74,0,.3.14.55.38.73l43.79,32.48-28.31,24.42-21.47-1.92c-.26-.02-.49.05-.7.21l-2.8,2.22c-.27.21-.4.52-.37.86.03.34.22.62.52.78l17.22,9.1s0,0,0,0c-.06.06-.11.12-.17.18-.06.06-.11.12-.16.18-.05.06-.11.12-.16.18-.05.06-.1.12-.15.19-.05.06-.1.12-.15.19-.05.06-.1.12-.15.19-.1.12-.19.25-.28.38-.04.06-.09.13-.13.19-.17.25-.33.51-.47.77-.04.06-.07.13-.1.19-.07.13-.13.26-.19.39-.06.13-.12.26-.17.4-.68,1.75-.73,3.01-.17,3.76.63.85,2.03,1.07,4.15.64.14-.03.28-.06.43-.1.07-.02.14-.04.21-.06.28-.08.57-.18.85-.29.07-.03.14-.06.21-.08.14-.06.29-.12.43-.18.07-.03.14-.07.21-.1s.14-.07.22-.1c.07-.04.14-.07.22-.11.07-.04.14-.07.22-.11.07-.04.14-.08.22-.12.07-.04.14-.08.22-.12.07-.04.14-.08.22-.13.03-.02.06-.04.09-.06l5.17,19.69c.09.33.31.57.64.68.32.11.65.05.92-.16l2.8-2.22c.2-.16.32-.37.36-.63l3.18-22.53,29.51-21.52,21.69,50.03c.12.27.34.46.63.53.29.07.57.01.8-.17l5.65-4.48c.26-.2.38-.5.35-.82l-4.84-62.78s.02-.01.03-.02h0s0,0,0,0h0s0,0,0,0h0s0,0,0,0h0s0,0,0,0h0s0,0,0,0h0s0,0,0,0h0c.19-.15.39-.31.58-.46h0c.19-.15.39-.31.58-.46h0c.19-.15.39-.3.58-.46h0s.58-.46.58-.46h0c.19-.15.38-.3.57-.45h0c.19-.15.38-.3.57-.45h0c.19-.15.38-.3.57-.45h0c.38-.3.75-.6,1.13-.9.19-.15.37-.3.56-.45.19-.15.37-.3.55-.45.37-.3.73-.59,1.1-.89h0c.18-.15.36-.3.54-.44.18-.15.36-.3.54-.44h0c.18-.15.35-.3.53-.44h0c.18-.15.35-.3.52-.44.35-.3.69-.59,1.03-.89h0c.17-.15.34-.3.51-.44.17-.15.33-.3.5-.44.33-.3.65-.59.97-.89h0c.16-.15.32-.3.48-.44.16-.15.31-.3.47-.45.15-.15.31-.3.46-.45h0c.15-.15.3-.3.45-.45.15-.15.3-.3.44-.45.15-.15.29-.3.43-.45h0c.14-.15.28-.3.42-.45.14-.15.28-.3.41-.45h0c.14-.15.27-.3.4-.45.13-.15.26-.3.39-.45.13-.15.26-.3.38-.46.13-.15.25-.31.37-.46.12-.15.24-.31.36-.46.24-.31.46-.62.68-.93.11-.16.22-.31.32-.47,7.85-11.59,1.87-19.12-11.2-14.11Z" style="fill: #01b9b7; fill-rule: evenodd;"/>
</svg>